<?xml version="1.0" encoding="utf-8"?>
<!-- Generator: Adobe Illustrator 25.0.0, SVG Export Plug-In . SVG Version: 6.00 Build 0)  -->
<svg version="1.1" id="Layer_1" xmlns="http://www.w3.org/2000/svg" xmlns:xlink="http://www.w3.org/1999/xlink" x="0px" y="0px"
	 viewBox="0 0 24 24" style="enable-background:new 0 0 24 24;" xml:space="preserve">
<style type="text/css">
	.st0{fill-rule:evenodd;clip-rule:evenodd;fill:url(#SVGID_1_);}
</style>
<radialGradient id="SVGID_1_" cx="12" cy="12" r="10.198" gradientUnits="userSpaceOnUse">
	<stop  offset="0" style="stop-color:#ED1E79"/>
	<stop  offset="1" style="stop-color:#000000"/>
</radialGradient>
<path class="st0" d="M8,14.8c-0.7,0-1.3-0.5-1.5-1.1c-0.5-1.6-0.4-1.4-1.8-2.4C4.3,11,4,10.5,4,10c0-0.2,0-0.3,0.1-0.5
	c0.6-1.6,0.6-1.3,0-2.9C4,6.4,4,6.2,4,6c0-0.5,0.3-1,0.7-1.3c1.4-1,1.2-0.7,1.8-2.4c0.2-0.7,0.9-1.1,1.6-1.1h0
	c1.8,0,1.5,0.1,2.9-0.9C11.3,0.1,11.6,0,12,0s0.7,0.1,1,0.3c1.4,1,1.1,0.9,2.9,0.9h0c0.7,0,1.4,0.5,1.6,1.1c0.5,1.6,0.4,1.4,1.8,2.4
	C19.7,5,20,5.5,20,6c0,0.2,0,0.3-0.1,0.5c-0.6,1.6-0.6,1.3,0,2.9C20,9.6,20,9.8,20,10c0,0.5-0.3,1-0.7,1.3c-1.4,1-1.2,0.7-1.8,2.4
	c-0.2,0.6-0.8,1.1-1.5,1.1V24l-4-3l-4,3V14.8z M17.7,8c0-3.2-2.6-5.7-5.7-5.7C8.8,2.3,6.3,4.8,6.3,8s2.6,5.7,5.7,5.7
	C15.2,13.7,17.7,11.2,17.7,8z M12,4C9.8,4,8,5.8,8,8s1.8,4,4,4c2.2,0,4-1.8,4-4S14.2,4,12,4z"/>
</svg>
