<svg id="Capa_1" data-name="Capa 1" xmlns="http://www.w3.org/2000/svg" viewBox="0 0 566.93 821.89"><defs><style>.cls-1{fill:#5eead4;}</style></defs><path class="cls-1" d="M1160.48-2273.56c1.12,35.44-8,65.68-32,90.4-29.6,31-69.85,31-99.93.64-42.64-43-43.44-131.84-1.44-176,32-33.92,80-31.52,107.85,6.4A118.25,118.25,0,0,1,1160.48-2273.56Zm-44.16,6.64c0-4.56,1-10.32-1.36-13.6-8-11.68-15.44-26.72-27.12-32.8-14.33-7.6-20.81,5.76-23.13,19.36-.4,2.32-4.48,3.92-6.72,5.92-17.6,15.52-10,33.6-1.12,48,5.76,9.28,24,21.2,29.13,18.4,12.24-7.12,20.16-21.76,29.12-33.92C1117-2258.12,1116-2262.92,1116.32-2266.92Z" transform="translate(-669.55 2515.26)"/><path class="cls-1" d="M983.83-2264.84c-11.76,26-19,51.44-33.52,72-18.88,26.49-54.65,27.21-80,6.64-44-36.08-43.36-123.36,1.12-158.65,26.24-20.8,60.25-19.28,79.29,8C965.11-2316.28,972.23-2290.92,983.83-2264.84Zm-51.28-2.56c0-3.52.48-7.28-1-9.52-6.8-10-14.32-19.6-21.53-29.36-6.8,6.56-13.6,13.12-20.24,19.84-3.2,3.2-8.8,6.88-8.64,10.16a96.88,96.88,0,0,0,5.84,36.48,24.64,24.64,0,0,0,22.72,9.12c8.81-4.32,15-15,21.05-24C933-2257.72,932.07-2263.32,932.55-2267.4Z" transform="translate(-669.55 2515.26)"/><path class="cls-1" d="M1168.48-2378.13l-54.08-40c19.68-21.36,37-37.6,65.76-48.56C1176.08-2435.65,1172.8-2410.93,1168.48-2378.13Z" transform="translate(-669.55 2515.26)"/><path class="cls-1" d="M846.38-2445.17c11,10.8,24.64,19.92,32,32.72,9,15.36-8,20.64-17.76,26.16-2.56,1.52-14.4-5.92-16-11a312.83,312.83,0,0,1-6.4-42.4Z" transform="translate(-669.55 2515.26)"/><path class="cls-1" d="M1009.91-2150.83c-9.68,5.36-19,13.68-29.12,14.72-5.6.56-12.48-11-18.72-17.2l3.6-6.08h40.64Z" transform="translate(-669.55 2515.26)"/><ellipse class="cls-1" cx="237.24" cy="248.82" rx="25.76" ry="36.4"/><ellipse class="cls-1" cx="415.73" cy="246.9" rx="37.92" ry="47.12"/><path class="cls-1" d="M819.9-1756.49c4.16-32.48,8-63.52,12.4-94.24a71.93,71.93,0,0,1,9.84-20.73c2.56-4.64,5.68-9,8.48-13.52l5.76,2.56q9.52,40.82,19,81.69l6.24,1.6C861.1-1907.86,926.47-1962,1011.51-2006.5l-22.88-10.64c2.72-5.6,5-10.25,7.12-15,7.36-16,5.44-24-15-27.68-121.13-21.92-178-130.89-162-216.49a320.34,320.34,0,0,0,1.36-105.13,681.38,681.38,0,0,1-5.28-82.88c-.48-23.61,11.84-30.65,32-17.92,22.8,14.16,43.68,31.52,66.57,45.52a38.76,38.76,0,0,0,29.2,5.36c39.12-15,78.4-11.84,118.48-7.36a51.15,51.15,0,0,0,31.13-8c28.24-18.56,54.48-40,82.88-58.49s43.6-11.92,43,22.73c-1,61.44-4.4,123-8,184a705.3,705.3,0,0,1-11.36,98.16,167.06,167.06,0,0,1-69.6,102.73,25.52,25.52,0,0,0-10.32,33.52c26.16,75.45,58.56,149.21,64.56,230.26,0,1.92,2.32,3.6,7.2,10.56,3-22.8,5.52-40.72,8-60,59,45.53,46.57,153.93-18.32,180.42a72,72,0,0,1-20.32,3.6,2215.93,2215.93,0,0,1-344-1.76c-106.81-8-147.37-82.17-146.25-187.3a224.08,224.08,0,0,1,29.12-110c23.44-40.81,56.48-69.69,105.69-70.89,56-1.44,83.52,45.2,56,94.17a428.58,428.58,0,0,1-41.68,55.28c-28.48,35.28-48,73.53-40,120.73A49.19,49.19,0,0,0,819.9-1756.49Zm340.58-517.07a118.25,118.25,0,0,0-25.12-78.25c-28.08-37.92-75.45-40-107.85-6.4-42,43.85-41.2,132.65,1.44,176,30.08,30.33,70.33,30.33,99.93-.64C1152.48-2207.88,1161.6-2238.12,1160.48-2273.56Zm-176.65,8.72c-11.6-26.08-18.72-51.44-32.88-72-19-27.6-53.05-29.12-79.29-8-44.48,35.29-45.12,122.57-1.12,158.65,25.12,20.57,60.89,19.85,80-6.64C964.79-2213.4,972.07-2238.84,983.83-2264.84Zm184.65-113.29c4.32-33,7.6-57.52,11.68-88.64-28.8,11-46.08,27.2-65.76,48.56Zm-322.1-67-8,5.52a312.83,312.83,0,0,0,6.4,42.4c1.44,5,13.28,12.48,16,11,9.6-5.52,26.8-10.8,17.76-26.16C871-2425.25,857.34-2434.37,846.38-2445.17Zm163.53,294.34-3.6-8.56H965.67l-3.6,6.08c6.24,6.16,13.12,17.76,18.72,17.2C990.87-2137.15,1000.23-2145.47,1009.91-2150.83ZM863.34-2004.9c-8.72-8-13.28-16-16.64-15a433.51,433.51,0,0,0-42.32,10.48l2.16,8Z" transform="translate(-669.55 2515.26)"/><ellipse class="cls-1" cx="164.31" cy="504.51" rx="33.58" ry="24.32"/></svg>