<?xml version="1.0" encoding="utf-8"?>
<!-- Generator: Adobe Illustrator 25.0.0, SVG Export Plug-In . SVG Version: 6.00 Build 0)  -->
<svg version="1.1" id="Layer_1" xmlns="http://www.w3.org/2000/svg" xmlns:xlink="http://www.w3.org/1999/xlink" x="0px" y="0px"
	 viewBox="0 0 24 24" style="enable-background:new 0 0 24 24;" xml:space="preserve">
<style type="text/css">
	.st0{fill:url(#SVGID_1_);}
</style>
<radialGradient id="SVGID_1_" cx="12" cy="12" r="12" gradientUnits="userSpaceOnUse">
	<stop  offset="0" style="stop-color:#7D579A"/>
	<stop  offset="1" style="stop-color:#1A1F1C"/>
</radialGradient>
<path class="st0" d="M6,9.7c0.3,0.6,0.6,1.2,0.9,1.8C2.8,10.1,0.4,6.1,0,2h4.1c0,0.5,0.1,1,0.1,1.4H1.5C2,5.4,3.1,8.1,6,9.7z
	 M10.6,16C10.1,12.1,5,9.8,5,0h14c0,9.8-5.1,12.1-5.6,16H10.6z M7.4,2c0.2,4.6,2,8.3,4.3,11.1C9.8,9.8,9.1,5.6,9,2C9,2,7.4,2,7.4,2z
	 M17,19.6V24H7v-4.4c1.9,0,3.4-1.4,3.6-2.6h2.9C13.6,18.2,15,19.6,17,19.6z M16,21H8v2h8V21z M19.9,2c0,0.5-0.1,1-0.1,1.4h2.7
	c-0.4,2-1.5,4.7-4.5,6.3c-0.3,0.6-0.6,1.2-0.9,1.8c4.1-1.3,6.5-5.3,6.9-9.4H19.9z"/>
</svg>
