<?xml version="1.0" encoding="utf-8"?>
<!-- Generator: Adobe Illustrator 25.0.0, SVG Export Plug-In . SVG Version: 6.00 Build 0)  -->
<svg version="1.1" id="Layer_1" xmlns="http://www.w3.org/2000/svg" xmlns:xlink="http://www.w3.org/1999/xlink" x="0px" y="0px"
	 viewBox="0 0 24 24" style="enable-background:new 0 0 24 24;" xml:space="preserve">
<style type="text/css">
	.st0{fill:url(#SVGID_1_);}
</style>
<radialGradient id="SVGID_1_" cx="12" cy="12" r="9.8234" gradientUnits="userSpaceOnUse">
	<stop  offset="0" style="stop-color:#D4E3A5"/>
	<stop  offset="0.1871" style="stop-color:#D1E0A3"/>
	<stop  offset="0.3255" style="stop-color:#C8D79C"/>
	<stop  offset="0.4483" style="stop-color:#B9C790"/>
	<stop  offset="0.5621" style="stop-color:#A4B080"/>
	<stop  offset="0.6696" style="stop-color:#89936B"/>
	<stop  offset="0.7724" style="stop-color:#676F50"/>
	<stop  offset="0.8715" style="stop-color:#3F4431"/>
	<stop  offset="0.9654" style="stop-color:#12140E"/>
	<stop  offset="1" style="stop-color:#000000"/>
</radialGradient>
<path class="st0" d="M12,14c-2.8,0-5,2.2-5,5s2.2,5,5,5s5-2.2,5-5S14.8,14,12,14z M13.5,21.2L12,20.4l-1.5,0.8l0.3-1.7l-1.3-1.2
	l1.7-0.2l0.8-1.6l0.8,1.6l1.7,0.2l-1.3,1.2L13.5,21.2z M19,9l-7,4L5,9l2-6l4,6L8,0h8L19,9z"/>
</svg>
