<svg id="Layer_1" data-name="Layer 1" xmlns="http://www.w3.org/2000/svg" viewBox="0 0 260.01 259.99"><defs><style>.cls-1{fill:#f7941d;}.cls-2{fill:#6d6e71;}.cls-3{fill:#1a1a1a;}.cls-4{fill:#fbb040;}</style></defs><path class="cls-1" d="M303.58,241.36A130,130,0,1,1,173.51,371.3,129.9,129.9,0,0,1,303.58,241.36Z" transform="translate(-173.51 -241.36)"/><path class="cls-2" d="M303.35,486.19c-63.23-.1-114.86-51.94-114.68-115.14S240.73,256.27,304,256.52c63,.24,114.45,51.86,114.42,114.88C418.34,434.62,366.57,486.29,303.35,486.19Z" transform="translate(-173.51 -241.36)"/><path class="cls-3" d="M263.55,347.9c0,18.14-.14,36.29.18,54.43,0,2.19-3.21,6.81,2.94,7,7.65.21,11.29-2,11.81-7.56.09-1,0-2,0-3,0-5.16,0-10.32,0-15.48,0-5.37,2.35-9.27,7.46-11.21,4.9-1.86,9.26-.64,12.67,3.15q31.2,34.74,62.23,69.61c4.45,5,3.56,9.51-2.14,13.23-58.49,38.18-139.61,5.29-155.19-62.93-9.93-43.48,8.14-87.41,45.6-111,3.33-2.09,6.57-4.11,10.58-1.77,3.76,2.19,3.87,5.78,3.86,9.57C263.51,310.6,263.55,329.25,263.55,347.9Z" transform="translate(-173.51 -241.36)"/><path class="cls-3" d="M335.68,333.43c-4.38,0-7.54,0-10.7,0a15.65,15.65,0,0,0-12,5.07c-4.56,4.86-9.16,9.68-13.71,14.55-3.76,4-8.19,5.67-13.48,3.59s-7.29-6.33-7.27-11.87c.07-21.83,0-43.66,0-65.48,0-5.8,1.9-8,7.66-9.11,51.51-10.22,105.57,25.31,117.28,77.07,7.15,31.59.59,60.3-18.23,86.4-4.64,6.43-9.22,6.55-14.69.65q-27.87-30-55.75-60.09c-6.29-6.79-6.26-12.32.2-19.13C321.61,348.1,328.27,341.18,335.68,333.43Z" transform="translate(-173.51 -241.36)"/><path class="cls-1" d="M248.37,304.26V413.33c0,9.16,1.92,11.09,11,11.1,3.66,0,7.33,0,11,0,13.58-.17,23.06-9.68,23.28-23.33,0-2.31,0-4.62,0-8.44l50.19,56C307,468.83,254.18,459.07,228.38,416,204.52,376.22,217.81,327.09,248.37,304.26Z" transform="translate(-173.51 -241.36)"/><path class="cls-4" d="M293.68,336.64c0-17.48.06-33.57-.05-49.66,0-2.92,1.77-2.6,3.57-2.73,23.7-1.67,44.76,5.12,62.83,20.4a87.11,87.11,0,0,1,18.4,111.62c-.41.69-.89,1.33-1.56,2.32-12.39-13.35-24.62-26.51-36.86-39.68-3.4-3.66-6.65-7.47-10.25-10.92-2.44-2.33-2.6-3.8-.07-6.33,9.29-9.31,18.31-18.9,27.46-28.35,2.87-3,5.55-5.84,3.5-10.47s-5.95-4.62-10.07-4.59c-8.16.08-16.33.23-24.48,0-10.37-.33-18.77,3.46-25.59,11.12C298.58,331.53,296.53,333.6,293.68,336.64Z" transform="translate(-173.51 -241.36)"/></svg>