<?xml version="1.0" encoding="utf-8"?>
<!-- Generator: Adobe Illustrator 25.0.0, SVG Export Plug-In . SVG Version: 6.00 Build 0)  -->
<svg version="1.1" id="Layer_1" xmlns="http://www.w3.org/2000/svg" xmlns:xlink="http://www.w3.org/1999/xlink" x="0px" y="0px"
	 viewBox="0 0 24 24" style="enable-background:new 0 0 24 24;" xml:space="preserve">
<style type="text/css">
	.st0{clip-path:url(#SVGID_2_);}
</style>
<g>
	<g>
		<defs>
			<path id="SVGID_1_" d="M19,1c0,9.8-5.1,13.1-5.6,17h-2.8C10.1,14.1,5,10.8,5,1H19z M11.7,14.1C9.8,10.8,9.1,6.6,9,3H7.3
				C7.6,7.6,9.3,11.3,11.7,14.1z M13.4,19h-2.9c-0.2,1.2-0.6,2.6-2.6,2.6V23h8v-1.4C14,21.6,13.6,20.2,13.4,19z M20.5,17.4
				c-1.4-0.6-2.6-0.2-3.4,0.3c0.7-0.5,1.6-1.5,1.6-3c-2.6,1-2.3,2.5-2.8,3.3c-0.3,0.6-1,0.3-1,0.3l-0.2,0.4c0.4,0.2,1,0.3,1.7,0.3
				C17.8,19,19.4,18.6,20.5,17.4z M23,13.4c-1.4,0.1-2.1,1.1-2.5,1.8c0.4-0.7,0.6-1.9,0-3.2c-1.6,1.9-0.8,3-0.8,3.8
				c0,0.4-0.5,0.4-0.5,0.4l0,0.4C19.5,16.6,22.3,15.9,23,13.4z M24,9.5c-1.2,0.4-1.6,1.5-1.7,2.2c0.2-0.7,0-1.9-0.8-2.8
				c-0.9,2.1,0.1,2.7,0.3,3.5c0.1,0.4-0.3,0.6-0.3,0.6l0.3,0.2C21.8,13.2,24.1,11.9,24,9.5z M23.8,5.7c-0.9,0.7-1,1.7-1,2.3
				c0-0.6-0.4-1.6-1.4-2.2c-0.3,2,0.8,2.3,1.1,2.9c0.2,0.3,0,0.7,0,0.7l0.3,0c0,0,0-0.1,0.2-0.4C23.4,8.4,24.3,7.7,23.8,5.7z
				 M21.9,3c0,0-0.3,1,0,1.7c0.2,0.8,0.9,1.4,0.9,1.4s0.3-0.9,0.1-1.7C22.6,3.6,21.9,3,21.9,3z M9.2,18.7L9,18.3c0,0-0.7,0.3-1-0.3
				c-0.5-0.8-0.2-2.3-2.8-3.3c0,1.5,0.8,2.5,1.6,3c-0.7-0.5-2-0.9-3.4-0.3c1.1,1.2,2.7,1.6,4,1.6C8.2,19,8.9,18.9,9.2,18.7z
				 M4.8,16.6l0-0.4c0,0-0.5,0-0.5-0.4c0-0.9,0.8-1.9-0.8-3.8c-0.7,1.2-0.4,2.5,0,3.2c-0.4-0.7-1.1-1.7-2.5-1.8
				C1.7,15.9,4.5,16.6,4.8,16.6z M2.3,13.2L2.6,13c0,0-0.4-0.2-0.3-0.6c0.2-0.8,1.2-1.4,0.3-3.5c-0.9,0.9-1,2-0.8,2.8
				C1.6,11,1.2,9.9,0,9.5C-0.1,11.9,2.2,13.2,2.3,13.2z M0.9,9c0.1,0.3,0.2,0.4,0.2,0.4l0.3,0c0,0-0.2-0.4,0-0.7
				c0.4-0.6,1.4-0.9,1.1-2.9c-1,0.5-1.3,1.5-1.4,2.2c0-0.6-0.1-1.7-1-2.3C-0.3,7.7,0.6,8.4,0.9,9z M1.2,4.4C0.9,5.2,1.3,6.1,1.3,6.1
				s0.6-0.6,0.9-1.4C2.4,4,2.1,3,2.1,3S1.4,3.6,1.2,4.4z"/>
		</defs>
		<clipPath id="SVGID_2_">
			<use xlink:href="#SVGID_1_"  style="overflow:visible;"/>
		</clipPath>
		<g class="st0">
			<g>
				<defs>
					<rect id="SVGID_3_" x="-5" y="-4" width="34" height="32"/>
				</defs>
				<clipPath id="SVGID_4_">
					<use xlink:href="#SVGID_3_"  style="overflow:visible;"/>
				</clipPath>
				<g style="clip-path:url(#SVGID_4_);">
					
						<image style="overflow:visible;" width="72" height="68" xlink:href="DB15CAF8.jpg"  transform="matrix(0.48 0 0 0.48 -5.28 -4.32)">
					</image>
				</g>
			</g>
		</g>
	</g>
</g>
</svg>
