<svg id="Layer_1" data-name="Layer 1" xmlns="http://www.w3.org/2000/svg" xmlns:xlink="http://www.w3.org/1999/xlink" viewBox="0 0 512 512"><defs><linearGradient id="linear-gradient" x1="383.26" y1="473.14" x2="383.26" y2="35.76" gradientUnits="userSpaceOnUse"><stop offset="0" stop-color="#231f20"/><stop offset="1" stop-color="#58595b"/></linearGradient><linearGradient id="linear-gradient-2" x1="185.6" y1="473.14" x2="185.6" y2="35.76" xlink:href="#linear-gradient"/><linearGradient id="linear-gradient-3" x1="256" y1="473.13" x2="256" y2="35.81" xlink:href="#linear-gradient"/></defs><title>shopping_cart</title><path d="M383.26,416.6a29.79,29.79,0,1,0,29.67,29.77A29.72,29.72,0,0,0,383.26,416.6Z" fill="url(#linear-gradient)"/><path d="M185.6,416.6a29.79,29.79,0,1,0,29.65,29.77A29.71,29.71,0,0,0,185.6,416.6Z" fill="url(#linear-gradient-2)"/><path d="M502,114.51H141.87a10.67,10.67,0,0,0-2,.4L129.14,37.71V35.82H12.74A12.81,12.81,0,0,0,0,48.61V74.08A12.8,12.8,0,0,0,12.74,86.89H84.66L129.14,406v1.89H443.65a12.8,12.8,0,0,0,12.73-12.8V369.61a12.81,12.81,0,0,0-12.73-12.79h-270l-3.51-25.17H448.26c7,0,14.13-5.57,15.82-12.42l47.56-192.3C513.33,120.1,509,114.51,502,114.51ZM154.14,184.18A17.82,17.82,0,1,1,172,202,17.82,17.82,0,0,1,154.14,184.18Zm26.7,89.64A17.82,17.82,0,1,1,198.66,256,17.82,17.82,0,0,1,180.84,273.82ZM237,166.37a17.82,17.82,0,1,1-17.82,17.82A17.82,17.82,0,0,1,237,166.37Zm2.2,107.46A17.82,17.82,0,1,1,257,256,17.82,17.82,0,0,1,239.21,273.82Zm58.37,0A17.82,17.82,0,1,1,315.42,256,17.81,17.81,0,0,1,297.58,273.82ZM302.06,202a17.82,17.82,0,1,1,17.83-17.83A17.84,17.84,0,0,1,302.06,202ZM356,273.82A17.82,17.82,0,1,1,373.8,256,17.83,17.83,0,0,1,356,273.82ZM367.12,202A17.82,17.82,0,1,1,385,184.18,17.84,17.84,0,0,1,367.12,202Zm47.22,71.81A17.82,17.82,0,1,1,432.17,256,17.81,17.81,0,0,1,414.34,273.82ZM432.17,202A17.82,17.82,0,1,1,450,184.18,17.84,17.84,0,0,1,432.17,202Z" fill="url(#linear-gradient-3)"/></svg>